<svg fill="currentColor" xmlns="http://www.w3.org/2000/svg" viewBox="18.162 17.734 36 36.233" width="36" height="36.233"><path d="M36.162 17.734c-9.941 0-18 8.112-18 18.117s8.06 18.117 18 18.117c9.942 0 18-8.112 18-18.117s-8.058-18.117-18-18.117m-.217 8.036 2.178 4.383c-2.469 5.012-4.935 10.037-7.404 15.049H26.8c3.048-6.472 6.097-12.959 9.146-19.432m4.065 8.035c1.843 3.798 3.672 7.597 5.515 11.395h-4.209c-.48-1.125-3.29-7.331-3.29-7.331 1.263-2.63.721-1.435 1.984-4.065" style="stroke-width:1" fill="#584dff"/></svg>
