<svg xmlns="http://www.w3.org/2000/svg" viewBox="16.144 15.764 32 32" width="32" height="32"><path d="M32.144 15.764c-8.836 0 -16 7.211 -16 16.104s7.164 16.104 16 16.104c8.837 0 16 -7.211 16 -16.104s-7.163 -16.104 -16 -16.104m-0.193 7.143 1.936 3.896c-2.195 4.455 -4.387 8.922 -6.581 13.377H23.822c2.709 -5.753 5.42 -11.519 8.13 -17.273m3.613 7.142c1.638 3.376 3.264 6.753 4.902 10.129h-3.741c-0.427 -1 -2.924 -6.516 -2.924 -6.516 1.123 -2.338 0.641 -1.276 1.764 -3.613" style="stroke-width:1"/></svg>