<svg fill="currentColor" xmlns="http://www.w3.org/2000/svg" viewBox="60.54 59.113 120 120.78" width="120" height="120"><path d="M120.54 59.113c-33.137 0-60 27.04-60 60.39s26.867 60.39 60 60.39c33.14 0 60-27.04 60-60.39s-26.86-60.39-60-60.39m-.723 26.787 7.26 14.61c-8.23 16.707-16.45 33.457-24.68 50.163H89.333c10.16-21.573 20.323-43.197 30.487-64.773m13.55 26.783c6.143 12.66 12.24 25.323 18.383 37.983h-14.03c-1.6-3.75-10.967-24.437-10.967-24.437 4.21-8.767 2.403-4.783 6.613-13.55" style="stroke-width:1" fill="#584dff"/></svg>